<svg xmlns="http://www.w3.org/2000/svg" width="512" height="512" viewBox="0 0 512 512" role="img" aria-label="InkMatch logo mark">
  <defs>
    <linearGradient id="inkmatchGradient" x1="0" y1="0" x2="1" y2="1">
      <stop offset="0%" stop-color="#ff315c" />
      <stop offset="100%" stop-color="#ff7a18" />
    </linearGradient>
  </defs>
  <circle cx="256" cy="256" r="248" fill="url(#inkmatchGradient)" />
  <path fill="#ffffff" d="M92 278c0-90.2 73.1-163 163-163 40.4 0 79.3 15 108.8 41.6l30.3-30.3C355.4 93.8 306.4 72 255 72 140.1 72 47 165.1 47 280s93.1 208 208 208c67.2 0 127.4-31.9 165.9-82.3l-31.7-25.2C359.6 420 309.8 444 255 444c-89.9 0-163-72.8-163-166z" />
  <path fill="#ffffff" d="M270 186h43v173h-43zM194 186h43v173h-43zM346 224h43v135h-43z" />
</svg>
