<svg xmlns="http://www.w3.org/2000/svg" width="512" height="512" viewBox="0 0 512 512" role="img" aria-label="InkMatch chatbot icon">
  <defs>
    <linearGradient id="bg" x1="120" y1="96" x2="392" y2="416" gradientUnits="userSpaceOnUse">
      <stop offset="0%" stop-color="#b7d0ee" />
      <stop offset="100%" stop-color="#9ebfe1" />
    </linearGradient>
    <linearGradient id="body" x1="160" y1="206" x2="352" y2="440" gradientUnits="userSpaceOnUse">
      <stop offset="0%" stop-color="#f7f7f7" />
      <stop offset="100%" stop-color="#e5e8ec" />
    </linearGradient>
    <linearGradient id="shadow" x1="192" y1="172" x2="320" y2="330" gradientUnits="userSpaceOnUse">
      <stop offset="0%" stop-color="#2b2b2b" />
      <stop offset="100%" stop-color="#0f0f10" />
    </linearGradient>
  </defs>
  <circle cx="256" cy="256" r="176" fill="url(#bg)" />
  <path d="M156 198c0-62 50.2-112 112-112 46.2 0 85.8 28.3 102.2 68.5l-26.3 10.5c-12.1-29.6-41.3-50.5-75.9-50.5-44.2 0-80 35.8-80 80 0 15.8 4.6 30.6 12.5 43l-24.5 15.5c-11-17.2-17.3-37.6-17.3-55z" fill="#6f89a8" opacity="0.18" />
  <path d="M126 128l61 6 18 47-35 18-51-71z" fill="#e8ecf0" />
  <ellipse cx="178" cy="304" rx="34" ry="84" transform="rotate(-34 178 304)" fill="#eceff3" />
  <ellipse cx="352" cy="334" rx="30" ry="76" transform="rotate(28 352 334)" fill="#eceff3" />
  <rect x="206" y="140" width="100" height="26" rx="13" fill="#1b1b1d" />
  <rect x="226" y="152" width="60" height="64" rx="30" fill="#1b1b1d" />
  <rect x="198" y="108" width="116" height="36" rx="18" fill="#f2f2f2" />
  <path d="M188 140c0-38 31-69 69-69s69 31 69 69" fill="none" stroke="#0d0d0f" stroke-width="11" stroke-linecap="round" />
  <rect x="184" y="146" width="16" height="48" rx="8" fill="#121213" />
  <rect x="312" y="146" width="16" height="48" rx="8" fill="#121213" />
  <path d="M184 154c-18 0-32 14-32 32s14 32 32 32" fill="none" stroke="#121213" stroke-width="8" stroke-linecap="round" />
  <path d="M328 154c18 0 32 14 32 32s-14 32-32 32" fill="none" stroke="#121213" stroke-width="8" stroke-linecap="round" />
  <path d="M240 206h32v22h-32z" fill="#0e0e10" />
  <path d="M255 228h2v34h-2z" fill="#0e0e10" />
  <path d="M226 252h60v24h-60z" fill="#0e0e10" />
  <path d="M192 258c0 0 22 6 64 6s64-6 64-6v146c0 28-22 50-50 50h-28c-28 0-50-22-50-50V258z" fill="url(#body)" />
  <circle cx="256" cy="326" r="30" fill="#57d4df" />
  <ellipse cx="196" cy="312" rx="18" ry="74" transform="rotate(-16 196 312)" fill="#f7f7f7" />
  <ellipse cx="316" cy="354" rx="18" ry="74" transform="rotate(18 316 354)" fill="#f7f7f7" />
  <path d="M98 92h118c26 0 48 20 48 45v23c0 25-22 45-48 45h-20l-28 28 6-28H98c-26 0-48-20-48-45v-23c0-25 22-45 48-45z" fill="#5b8fd4" />
  <circle cx="127" cy="153" r="14" fill="#fff" />
  <circle cx="164" cy="153" r="14" fill="#fff" />
  <circle cx="201" cy="153" r="14" fill="#fff" />
</svg>
