<svg xmlns="http://www.w3.org/2000/svg" width="512" height="512" viewBox="0 0 512 512" role="img" aria-label="InkMatch chatbot icon">
  <defs>
    <linearGradient id="bg" x1="128" y1="110" x2="384" y2="402" gradientUnits="userSpaceOnUse">
      <stop offset="0%" stop-color="#bfd8f1" />
      <stop offset="100%" stop-color="#a9c9e8" />
    </linearGradient>
    <linearGradient id="body" x1="194" y1="248" x2="322" y2="452" gradientUnits="userSpaceOnUse">
      <stop offset="0%" stop-color="#f9f9f9" />
      <stop offset="100%" stop-color="#e4e8ed" />
    </linearGradient>
  </defs>

  <circle cx="256" cy="256" r="176" fill="url(#bg)" />

  <path d="M84 146c0-26 21-47 47-47h83c26 0 47 21 47 47v36c0 26-21 47-47 47h-26l-19 18 5-18h-43c-26 0-47-21-47-47v-36z" fill="#5a8fd5" />
  <circle cx="131" cy="184" r="13" fill="#fff" />
  <circle cx="167" cy="184" r="13" fill="#fff" />
  <circle cx="203" cy="184" r="13" fill="#fff" />

  <ellipse cx="244" cy="362" rx="65" ry="112" transform="rotate(-10 244 362)" fill="url(#body)" />
  <ellipse cx="324" cy="360" rx="26" ry="82" transform="rotate(25 324 360)" fill="#ebedf0" />
  <ellipse cx="186" cy="324" rx="26" ry="82" transform="rotate(-36 186 324)" fill="#ebedf0" />

  <rect x="206" y="166" width="100" height="24" rx="12" fill="#171717" />
  <rect x="222" y="176" width="68" height="76" rx="34" fill="#171717" />
  <rect x="197" y="142" width="118" height="34" rx="17" fill="#f1f3f5" />
  <path d="M185 176c0-40 32-72 71-72s71 32 71 72" fill="none" stroke="#0e0e10" stroke-width="10" stroke-linecap="round" />
  <rect x="185" y="180" width="14" height="46" rx="7" fill="#131315" />
  <rect x="313" y="180" width="14" height="46" rx="7" fill="#131315" />
  <path d="M185 188c-16 0-29 13-29 29s13 29 29 29" fill="none" stroke="#131315" stroke-width="8" stroke-linecap="round" />
  <path d="M327 188c16 0 29 13 29 29s-13 29-29 29" fill="none" stroke="#131315" stroke-width="8" stroke-linecap="round" />

  <path d="M244 238h24v17h-24z" fill="#0d0d0f" />
  <path d="M255 255h2v30h-2z" fill="#0d0d0f" />
  <path d="M228 273h56v22h-56z" fill="#0d0d0f" />

  <path d="M200 277c0 0 22 8 56 8s56-8 56-8v133c0 31-25 56-56 56h-0c-31 0-56-25-56-56V277z" fill="url(#body)" />
  <circle cx="256" cy="360" r="31" fill="#59d3df" />

  <path d="M331 286c14 0 25 11 25 25s-11 25-25 25c-7 0-12-2-17-7l-12-13 5-32c7-6 16-8 24-8z" fill="#f1f2f4" />
  <path d="M180 286c-14 0-25 11-25 25s11 25 25 25c7 0 12-2 17-7l12-13-5-32c-7-6-16-8-24-8z" fill="#f1f2f4" />
</svg>
</svg>
