<svg xmlns="http://www.w3.org/2000/svg" width="64" height="64" viewBox="0 0 64 64" role="img" aria-label="InkMatch favicon">
  <defs>
    <linearGradient id="g" x1="0" y1="0" x2="1" y2="1">
      <stop offset="0%" stop-color="#ff315c" />
      <stop offset="100%" stop-color="#ff7a18" />
    </linearGradient>
  </defs>
  <circle cx="32" cy="32" r="30" fill="url(#g)" />
  <path fill="#fff" d="M12.5 34.8c0-10.8 8.7-19.5 19.5-19.5 4.8 0 9.5 1.8 13 5l3.6-3.6C44 12.8 38.4 10.8 32 10.8 19 10.8 8.5 21.3 8.5 34.3S19 57.8 32 57.8c7.6 0 14.4-3.5 18.8-9.3l-3.8-3.1c-3.3 4.6-8.9 7.4-15 7.4-10.8 0-19.5-8.7-19.5-18z" />
  <path fill="#fff" d="M33.8 23h4.8v20h-4.8zM25.2 23H30v20h-4.8zM42.4 27h4.8v16h-4.8z" />
</svg>
