<svg xmlns="http://www.w3.org/2000/svg" width="512" height="512" viewBox="0 0 512 512" role="img" aria-label="InkMatch app icon">
  <defs>
    <linearGradient id="inkmatchGradient" x1="0" y1="0" x2="1" y2="1">
      <stop offset="0%" stop-color="#ff315c" />
      <stop offset="100%" stop-color="#ff7a18" />
    </linearGradient>
  </defs>
  <rect x="0" y="0" width="512" height="512" rx="110" fill="url(#inkmatchGradient)" />
  <path fill="#ffffff" d="M88 278c0-90.2 73.1-163 163-163 40.4 0 79.3 15 108.8 41.6l30.3-30.3C351.4 93.8 302.4 72 251 72 136.1 72 43 165.1 43 280s93.1 208 208 208c67.2 0 127.4-31.9 165.9-82.3l-31.7-25.2C355.6 420 305.8 444 251 444c-89.9 0-163-72.8-163-166z" />
  <path fill="#ffffff" d="M266 186h43v173h-43zM190 186h43v173h-43zM342 224h43v135h-43z" />
</svg>
